<?xml version="1.0"?>
<svg xmlns="http://www.w3.org/2000/svg" xmlns:xlink="http://www.w3.org/1999/xlink" version="1.1" id="Capa_1" x="0px" y="0px" viewBox="0 0 512 512" style="enable-background:new 0 0 512 512;" xml:space="preserve" width="512px" height="512px" class=""><g><path style="fill:#4ABAA5;" d="M266.133,181.333c3.2,1.067-13.867-38.4,11.733-82.133c19.2-39.467,90.667-80,173.867-23.467  c-54.4,50.133-83.2,69.333-118.4,83.2C301.333,170.667,265.067,181.333,266.133,181.333z" data-original="#4ABAA5"/><g>
	<path style="fill:#66C6B9;" d="M255.467,219.733c22.4-66.133,68.267-117.333,131.2-137.6c-66.133,16-117.333,67.2-142.933,137.6   L255.467,219.733L255.467,219.733z" data-original="#66C6B9"/>
	<path style="fill:#66C6B9;" d="M259.733,196.267C267.2,194.133,136,110.933,257.6,0C380.267,104.533,251.2,195.2,259.733,196.267z" data-original="#66C6B9"/>
</g><g>
	<path style="fill:#4ABAA5;" d="M267.2,219.733C264,163.2,261.867,109.867,258.667,60.8c-2.133,49.067-4.267,102.4-6.4,158.933   H267.2z" data-original="#4ABAA5"/>
	<path style="fill:#4ABAA5;" d="M252.267,215.467c-1.067,3.2,18.133-58.667-3.2-110.933c-16-49.067-82.133-88.533-153.6-35.2   C158.4,181.333,240.533,210.133,252.267,215.467z" data-original="#4ABAA5"/>
</g><path style="fill:#66C6B9;" d="M248,219.733h11.733c-19.2-69.333-58.667-117.333-106.667-137.6C197.867,105.6,232,153.6,248,219.733  z" data-original="#66C6B9"/><path style="fill:#FF3838" d="M256.533,512c0,0,237.867-119.467,237.867-283.733c0-70.4-56.533-126.933-125.867-126.933  c-49.067,0-92.8,28.8-112,71.467c-20.267-42.667-62.933-71.467-113.067-71.467c-69.333,0-125.867,56.533-125.867,126.933  C18.667,392.533,256.533,512,256.533,512z" data-original="#F3705A" class="" data-old_color="#F3705A"/><g>
	<path style="fill:#FFD15C" d="M46.4,209.067c0-3.2,6.4-16,6.4-16s6.4,12.8,6.4,16c0,3.2-3.2,6.4-6.4,6.4   C49.6,215.467,46.4,213.333,46.4,209.067z" data-original="#FFD15C" class="active-path" data-old_color="#FFD15C"/>
	<path style="fill:#FFD15C" d="M128.533,209.067c0-3.2,6.4-16,6.4-16s6.4,12.8,6.4,16c0,3.2-3.2,6.4-6.4,6.4   S128.533,213.333,128.533,209.067z" data-original="#FFD15C" class="active-path" data-old_color="#FFD15C"/>
	<path style="fill:#FFD15C" d="M210.667,209.067c0-3.2,6.4-16,6.4-16s6.4,12.8,6.4,16c0,3.2-3.2,6.4-6.4,6.4   S210.667,213.333,210.667,209.067z" data-original="#FFD15C" class="active-path" data-old_color="#FFD15C"/>
	<path style="fill:#FFD15C" d="M292.8,209.067c0-3.2,6.4-16,6.4-16s6.4,12.8,6.4,16c0,3.2-3.2,6.4-6.4,6.4   C296,215.467,292.8,213.333,292.8,209.067z" data-original="#FFD15C" class="active-path" data-old_color="#FFD15C"/>
	<path style="fill:#FFD15C" d="M374.933,209.067c0-3.2,6.4-16,6.4-16s6.4,12.8,6.4,16c0,3.2-3.2,6.4-6.4,6.4   C378.133,215.467,374.933,213.333,374.933,209.067z" data-original="#FFD15C" class="active-path" data-old_color="#FFD15C"/>
	<path style="fill:#FFD15C" d="M411.2,156.8c0-3.2,6.4-16,6.4-16s6.4,12.8,6.4,16s-3.2,6.4-6.4,6.4S411.2,160,411.2,156.8z" data-original="#FFD15C" class="active-path" data-old_color="#FFD15C"/>
	<path style="fill:#FFD15C" d="M341.867,145.067c0-3.2,6.4-16,6.4-16s6.4,12.8,6.4,16c0,3.2-3.2,6.4-6.4,6.4   C345.067,151.467,341.867,149.333,341.867,145.067z" data-original="#FFD15C" class="active-path" data-old_color="#FFD15C"/>
	<path style="fill:#FFD15C" d="M163.733,145.067c0-3.2,6.4-16,6.4-16s6.4,12.8,6.4,16c0,3.2-3.2,6.4-6.4,6.4   C166.933,151.467,163.733,149.333,163.733,145.067z" data-original="#FFD15C" class="active-path" data-old_color="#FFD15C"/>
	<path style="fill:#FFD15C" d="M89.067,145.067c0-3.2,6.4-16,6.4-16s6.4,12.8,6.4,16c0,3.2-3.2,6.4-6.4,6.4   C92.267,152.533,89.067,149.333,89.067,145.067z" data-original="#FFD15C" class="active-path" data-old_color="#FFD15C"/>
	<path style="fill:#FFD15C" d="M67.733,329.6c0-3.2,6.4-16,6.4-16s6.4,12.8,6.4,16s-3.2,6.4-6.4,6.4   C70.933,336,67.733,332.8,67.733,329.6z" data-original="#FFD15C" class="active-path" data-old_color="#FFD15C"/>
	<path style="fill:#FFD15C" d="M457.067,209.067c0-3.2,6.4-16,6.4-16s6.4,12.8,6.4,16c0,3.2-3.2,6.4-6.4,6.4   C460.267,215.467,457.067,213.333,457.067,209.067z" data-original="#FFD15C" class="active-path" data-old_color="#FFD15C"/>
	<path style="fill:#FFD15C" d="M89.067,270.933c0-3.2,6.4-16,6.4-16s6.4,12.8,6.4,16c0,3.2-3.2,6.4-6.4,6.4   S89.067,275.2,89.067,270.933z" data-original="#FFD15C" class="active-path" data-old_color="#FFD15C"/>
	<path style="fill:#FFD15C" d="M171.2,270.933c0-3.2,6.4-16,6.4-16s6.4,12.8,6.4,16c0,3.2-3.2,6.4-6.4,6.4   S171.2,275.2,171.2,270.933z" data-original="#FFD15C" class="active-path" data-old_color="#FFD15C"/>
	<path style="fill:#FFD15C" d="M253.333,270.933c0-3.2,6.4-16,6.4-16s6.4,12.8,6.4,16c0,3.2-3.2,6.4-6.4,6.4   S253.333,275.2,253.333,270.933z" data-original="#FFD15C" class="active-path" data-old_color="#FFD15C"/>
	<path style="fill:#FFD15C" d="M335.467,270.933c0-3.2,6.4-16,6.4-16s6.4,12.8,6.4,16c0,3.2-3.2,6.4-6.4,6.4   C338.667,277.333,335.467,275.2,335.467,270.933z" data-original="#FFD15C" class="active-path" data-old_color="#FFD15C"/>
	<path style="fill:#FFD15C" d="M417.6,270.933c0-3.2,6.4-16,6.4-16s6.4,12.8,6.4,16c0,3.2-3.2,6.4-6.4,6.4   C420.8,277.333,417.6,275.2,417.6,270.933z" data-original="#FFD15C" class="active-path" data-old_color="#FFD15C"/>
	<path style="fill:#FFD15C" d="M128.533,352c0-3.2,6.4-16,6.4-16s6.4,12.8,6.4,16c0,3.2-3.2,6.4-6.4,6.4S128.533,355.2,128.533,352   z" data-original="#FFD15C" class="active-path" data-old_color="#FFD15C"/>
	<path style="fill:#FFD15C" d="M210.667,352c0-3.2,6.4-16,6.4-16s6.4,12.8,6.4,16c0,3.2-3.2,6.4-6.4,6.4S210.667,355.2,210.667,352   z" data-original="#FFD15C" class="active-path" data-old_color="#FFD15C"/>
	<path style="fill:#FFD15C" d="M292.8,352c0-3.2,6.4-16,6.4-16s6.4,12.8,6.4,16c0,3.2-3.2,6.4-6.4,6.4   C296,358.4,292.8,355.2,292.8,352z" data-original="#FFD15C" class="active-path" data-old_color="#FFD15C"/>
	<path style="fill:#FFD15C" d="M374.933,352c0-3.2,6.4-16,6.4-16s6.4,12.8,6.4,16c0,3.2-3.2,6.4-6.4,6.4   C378.133,358.4,374.933,355.2,374.933,352z" data-original="#FFD15C" class="active-path" data-old_color="#FFD15C"/>
	<path style="fill:#FFD15C" d="M431.467,329.6c0-3.2,6.4-16,6.4-16s6.4,12.8,6.4,16s-3.2,6.4-6.4,6.4   C433.6,336,431.467,332.8,431.467,329.6z" data-original="#FFD15C" class="active-path" data-old_color="#FFD15C"/>
	<path style="fill:#FFD15C" d="M171.2,421.333c0-3.2,6.4-16,6.4-16s6.4,12.8,6.4,16s-3.2,6.4-6.4,6.4S171.2,424.533,171.2,421.333z   " data-original="#FFD15C" class="active-path" data-old_color="#FFD15C"/>
	<path style="fill:#FFD15C" d="M223.467,462.933c0-3.2,6.4-16,6.4-16s6.4,12.8,6.4,16c0,3.2-3.2,6.4-6.4,6.4   C226.667,469.333,223.467,466.133,223.467,462.933z" data-original="#FFD15C" class="active-path" data-old_color="#FFD15C"/>
	<path style="fill:#FFD15C" d="M288.533,462.933c0-3.2,6.4-16,6.4-16s6.4,12.8,6.4,16c0,3.2-3.2,6.4-6.4,6.4   S288.533,466.133,288.533,462.933z" data-original="#FFD15C" class="active-path" data-old_color="#FFD15C"/>
	<path style="fill:#FFD15C" d="M253.333,405.333c0-3.2,6.4-16,6.4-16s7.467,12.8,7.467,16s-3.2,6.4-6.4,6.4   C256.533,411.733,253.333,409.6,253.333,405.333z" data-original="#FFD15C" class="active-path" data-old_color="#FFD15C"/>
	<path style="fill:#FFD15C" d="M335.467,421.333c0-3.2,6.4-16,6.4-16s6.4,12.8,6.4,16s-3.2,6.4-6.4,6.4   C338.667,427.733,335.467,424.533,335.467,421.333z" data-original="#FFD15C" class="active-path" data-old_color="#FFD15C"/>
</g></g> </svg>
